# xmcd
#
# Track frame offsets: 
#        150
#        14512
#        33148
#        46947
#        65705
#        87886
#        108357
#        123149
#        138115
#        151101
#
# Disc length: 2205 seconds
#
# Revision: 1
# Processed by: cddbd v1.5.2PL0 Copyright (c) Steve Scherf et al.
# Submitted via: ExactAudioCopy v0.99pb5
#
DISCID=72089b0a
DTITLE=Syleena Johnson - Rebirth Of Soul
DYEAR=2017
DGENRE=Soul
TTITLE0=Make Me Yours
TTITLE1=There'll Come A Time
TTITLE2=We Did It
TTITLE3=The Makings Of You
TTITLE4=Is It Because I'm Black?
TTITLE5=I'd Rather Go Blind
TTITLE6=Chain Of Fools
TTITLE7=These Arms Of Mine
TTITLE8=Lonely Teardrops
TTITLE9=The Monkey Time
EXTD=
EXTT0=
EXTT1=
EXTT2=
EXTT3=
EXTT4=
EXTT5=
EXTT6=
EXTT7=
EXTT8=
EXTT9=
PLAYORDER=
